<?xml version="1.0" encoding="UTF-8"?>
<svg xmlns="http://www.w3.org/2000/svg" xmlns:xlink="http://www.w3.org/1999/xlink" width="150px" height="150px" viewBox="0 0 150 150" version="1.1">
<g id="surface1">
<path style=" stroke:none;fill-rule:evenodd;fill:rgb(41.176471%,40%,29.803922%);fill-opacity:1;" d="M 73.550781 111.035156 C 71.65625 114.722656 70.574219 118.835938 69.234375 123.128906 C 67.953125 127.242188 65.09375 131.402344 64.921875 135.222656 C 64.792969 138.175781 67.125 141.019531 64.445312 143.691406 C 60.5 143.785156 57.625 142.976562 56.300781 140.867188 C 51.90625 143.890625 40.351562 143.035156 33.300781 142.480469 C 37.269531 138.128906 46.902344 138.207031 50.070312 132.804688 C 50.4375 130.75 47.011719 131.886719 47.195312 129.980469 C 48.917969 119.746094 57.625 109.03125 59.171875 99.746094 C 59.75 96.289062 58.527344 93.339844 60.609375 90.875 C 62.144531 89.066406 67.570312 87.597656 70.671875 86.441406 C 81.035156 82.589844 92.304688 78.882812 103.734375 75.960938 L 103.734375 72.734375 C 100.476562 70.371094 93.710938 70.957031 89.839844 69.105469 C 87.867188 68.789062 88.941406 71.035156 86.964844 70.71875 L 31.382812 70.71875 C 30.269531 93.832031 31.222656 118.695312 30.90625 142.480469 C 29.332031 143.304688 26.054688 142.699219 23.71875 142.882812 C 23.402344 119.09375 24.351562 94.238281 23.238281 71.121094 C 16.515625 70.195312 7.757812 70.976562 0.238281 70.71875 L 0.238281 64.269531 C 9.84375 64.554688 17.96875 63.597656 27.550781 63.863281 C 27.980469 59.925781 33.042969 59.886719 34.257812 56.609375 C 34.921875 38.730469 32.117188 23.453125 28.03125 9.035156 C 29.640625 8.835938 31.847656 7.703125 32.820312 8.230469 C 38.160156 21.804688 42.003906 38.234375 45.757812 53.785156 C 43.34375 53.5 43.082031 55.027344 40.488281 54.59375 C 39.089844 53.082031 39.308594 50.210938 38.09375 48.546875 C 36.980469 50.699219 37.929688 54.589844 37.613281 57.414062 C 42.980469 60.019531 45.390625 65.117188 54.863281 64.269531 C 56.21875 63.933594 55.433594 61.789062 56.300781 61.042969 C 64.339844 60.898438 66.457031 61.871094 73.550781 61.847656 C 73.523438 58.933594 68.238281 59.613281 66.363281 59.429688 C 65.1875 58.109375 67.589844 57.601562 68.757812 57.011719 C 75.265625 53.730469 74.804688 57.390625 80.257812 59.832031 C 87.125 62.90625 95.554688 60.75 102.777344 59.429688 C 104.648438 50.523438 103.3125 38.914062 109.484375 33.628906 C 107.339844 31.242188 110.742188 28.867188 109.007812 25.96875 C 105.730469 25.773438 103.640625 28.699219 100.863281 27.582031 C 97.945312 26.003906 98.269531 21.699219 95.113281 20.324219 C 95.164062 14.207031 91.882812 10.226562 89.839844 7.019531 C 95.472656 3.171875 105.21875 -2.449219 113.320312 1.78125 C 116.890625 5.632812 119.367188 12.089844 117.632812 19.113281 C 119.953125 20.980469 121.382812 23.320312 124.339844 25.164062 C 125.8125 26.082031 128.121094 26.082031 129.609375 27.582031 C 131.851562 29.832031 134.210938 36.542969 134.882812 40.078125 C 136.828125 50.332031 137.148438 64.5625 132.964844 72.332031 C 137.398438 81.328125 133.386719 91.378906 127.695312 96.519531 C 135.722656 98.179688 135.710938 90.246094 136.796875 83.621094 C 138.664062 72.238281 140.175781 57.542969 143.027344 46.933594 C 146.300781 48.496094 143.792969 52.371094 143.503906 54.996094 C 143.210938 57.730469 142.835938 60.359375 142.546875 62.65625 C 140.890625 75.84375 141.445312 91.632812 133.445312 99.34375 C 129.046875 99.945312 123.660156 99.710938 118.589844 99.746094 C 117.5 103.933594 118.410156 109.808594 118.109375 114.664062 C 118.109375 114.664062 118.296875 140.140625 123.34375 141.183594 C 131.25 143.265625 141.585938 143.304688 149.695312 145.214844 C 149.960938 148.335938 149.429688 149.324219 147.777344 149.648438 C 144.277344 150.34375 145.535156 146.292969 142.988281 145.617188 C 136.324219 146.039062 128.757812 143.78125 121.90625 144.410156 C 120.410156 144.546875 118.417969 146.070312 116.15625 146.425781 C 107.085938 147.847656 96.007812 142.140625 94.113281 149.648438 L 90.28125 149.648438 C 90.566406 147.933594 89.9375 146.984375 89.800781 145.617188 C 93.542969 144.835938 97.839844 144.292969 101.785156 143.421875 C 118.558594 143.4375 110.921875 110.632812 110.921875 110.632812 C 110.613281 104.921875 111.121094 103.539062 111.402344 100.148438 C 105.789062 99.226562 98.164062 100 91.757812 99.746094 C 88.589844 99.691406 90.628906 108.421875 90.628906 108.421875 C 90.769531 114.804688 94.304688 120.710938 96.5 126.804688 L 98.480469 129.75 C 100.644531 133.652344 100.71875 137.84375 99.511719 142.214844 C 97.488281 143.113281 94.304688 145.175781 92.699219 142.304688 C 90.910156 143.992188 88.890625 143.839844 87.085938 145.378906 C 87.085938 145.378906 77.257812 148.527344 76.964844 146.195312 C 76.667969 143.867188 82.976562 142.726562 78.878906 143.582031 C 74.777344 144.433594 82.976562 142.726562 88.53125 136.152344 C 88.582031 135 87.628906 133.984375 87.566406 132.847656 C 84.328125 131.691406 81.300781 132.207031 78.09375 131.300781 C 76.476562 123.886719 74.886719 116.464844 73.105469 109.070312 "/>
<path style=" stroke:none;fill-rule:nonzero;fill:rgb(0%,0%,0%);fill-opacity:1;" d="M 73.113281 111 C 71.609375 114.019531 70.601562 117.167969 69.636719 120.332031 C 68.554688 123.875 67.050781 127.222656 65.625 130.667969 C 64.292969 133.894531 64.554688 136.386719 65.179688 139.664062 C 65.417969 140.925781 65.214844 141.957031 64.507812 143.082031 C 64.078125 143.765625 62.371094 143.375 61.695312 143.304688 C 59.597656 143.089844 57.808594 142.230469 56.726562 140.703125 C 56.597656 140.519531 56.152344 140.617188 56 140.714844 C 51.566406 143.542969 44.289062 142.878906 39.082031 142.609375 C 37.792969 142.542969 36.503906 142.449219 35.21875 142.355469 C 33.367188 142.21875 34.324219 141.855469 35.488281 141.082031 C 37.519531 139.738281 40.101562 138.992188 42.449219 138.136719 C 44.847656 137.265625 51.199219 134.90625 50.480469 131.992188 C 50.097656 130.433594 47.339844 131.707031 47.777344 129.316406 C 48.324219 126.300781 49.507812 123.371094 50.773438 120.527344 C 53.023438 115.492188 55.859375 110.652344 57.917969 105.554688 C 58.863281 103.222656 59.589844 100.808594 59.789062 98.351562 C 60.007812 95.59375 59.019531 92.222656 61.902344 90.195312 C 63.9375 88.761719 66.824219 88.035156 69.25 87.210938 C 72.527344 86.097656 75.742188 84.851562 79.007812 83.714844 C 86.28125 81.1875 93.675781 78.894531 101.175781 76.882812 C 102.050781 76.648438 102.933594 76.421875 103.8125 76.195312 C 103.941406 76.160156 104.203125 76.066406 104.203125 75.917969 C 104.203125 74.941406 104.5 73.570312 104.199219 72.628906 C 104.046875 72.148438 102.511719 71.65625 102.023438 71.496094 C 99.328125 70.625 96.425781 70.417969 93.621094 69.910156 C 92.414062 69.691406 89.964844 68.214844 88.730469 69.003906 C 88.203125 69.339844 88.039062 69.761719 87.765625 70.261719 C 87.414062 70.90625 82.316406 70.460938 81.480469 70.460938 L 31.554688 70.460938 C 31.359375 70.460938 30.929688 70.527344 30.917969 70.753906 C 30.339844 83.015625 30.324219 95.285156 30.386719 107.550781 C 30.421875 113.792969 30.476562 120.03125 30.5 126.269531 C 30.511719 129.375 30.511719 132.476562 30.5 135.582031 C 30.496094 137.125 30.484375 138.667969 30.46875 140.210938 C 30.460938 141.003906 30.847656 142.425781 29.34375 142.621094 C 28.472656 142.738281 27.558594 142.660156 26.683594 142.628906 C 24.96875 142.570312 24.1875 143 24.167969 141.308594 C 24.148438 139.765625 24.140625 138.222656 24.128906 136.683594 C 24.113281 133.582031 24.117188 130.476562 24.125 127.375 C 24.144531 121.136719 24.199219 114.898438 24.234375 108.660156 C 24.308594 96.132812 24.296875 83.601562 23.707031 71.082031 C 23.699219 70.929688 23.574219 70.882812 23.410156 70.863281 C 18.816406 70.277344 14.160156 70.375 9.527344 70.449219 C 6.757812 70.496094 3.992188 70.539062 1.21875 70.484375 C 0.273438 70.464844 0.707031 64.945312 0.707031 64.226562 C 0.496094 64.328125 0.285156 64.425781 0.0742188 64.523438 C 9.1875 64.757812 18.273438 63.902344 27.382812 64.121094 C 27.601562 64.125 27.980469 64.050781 28.019531 63.824219 C 28.390625 61.625 30.152344 60.628906 32.113281 59.390625 C 33.035156 58.808594 34.691406 57.652344 34.726562 56.570312 C 34.917969 51.011719 34.796875 45.457031 34.351562 39.90625 C 33.519531 29.453125 31.367188 19.113281 28.496094 8.929688 C 28.363281 9.042969 28.234375 9.15625 28.105469 9.269531 C 28.914062 9.128906 29.671875 8.90625 30.449219 8.679688 C 32.226562 8.152344 32.671875 9.128906 33.101562 10.257812 C 33.851562 12.242188 34.542969 14.242188 35.214844 16.246094 C 36.539062 20.203125 37.710938 24.195312 38.828125 28.195312 C 41.203125 36.71875 43.226562 45.308594 45.296875 53.886719 L 45.929688 53.527344 C 44.597656 53.457031 41.09375 54.878906 40.375 53.628906 C 39.417969 51.972656 39.554688 50.03125 38.519531 48.378906 C 38.378906 48.15625 37.738281 48.320312 37.65625 48.515625 C 36.433594 51.339844 37.386719 54.515625 37.148438 57.449219 C 37.140625 57.527344 37.175781 57.582031 37.253906 57.621094 C 40 59.011719 42.140625 61.046875 44.75 62.589844 C 47.738281 64.355469 51.246094 64.785156 54.8125 64.523438 C 55.410156 64.480469 55.949219 63.996094 56.074219 63.523438 C 56.246094 62.886719 56.269531 62.234375 56.414062 61.59375 C 56.546875 61.015625 60.296875 61.328125 60.886719 61.351562 C 65.070312 61.511719 69.183594 62.09375 73.382812 62.105469 C 73.632812 62.105469 74.042969 62.011719 74.011719 61.742188 C 73.757812 59.234375 70.300781 59.230469 67.996094 59.210938 C 67.726562 59.210938 67.457031 59.210938 67.1875 59.203125 C 65.664062 59.183594 67.632812 57.773438 68.046875 57.601562 C 69.046875 57.183594 70 56.699219 71.019531 56.316406 C 73.589844 55.347656 75.039062 56.8125 76.75 58.140625 C 84.027344 63.789062 94.304688 61.25 102.855469 59.664062 C 103.007812 59.636719 103.214844 59.535156 103.246094 59.390625 C 104.15625 54.867188 104.316406 50.273438 104.902344 45.71875 C 105.441406 41.539062 106.328125 36.90625 109.867188 33.71875 C 109.953125 33.644531 109.980469 33.554688 109.914062 33.460938 C 108.132812 31.121094 110.746094 28.417969 109.46875 25.863281 C 109.421875 25.765625 109.300781 25.710938 109.175781 25.710938 C 107.128906 25.710938 105.589844 26.5 103.789062 27.238281 C 99.890625 28.835938 98.957031 24.070312 97.699219 22.160156 C 97.226562 21.441406 96.699219 20.867188 95.945312 20.355469 C 95.125 19.796875 95.386719 17.566406 95.242188 16.792969 C 94.816406 14.492188 93.742188 12.265625 92.457031 10.214844 C 91.914062 9.347656 91.347656 8.496094 90.777344 7.640625 C 90.117188 6.644531 91.78125 6.074219 92.632812 5.542969 C 95.425781 3.789062 98.453125 2.273438 101.746094 1.296875 C 105.253906 0.253906 108.945312 0.261719 112.296875 1.667969 C 113.667969 2.242188 114.566406 4.019531 115.207031 5.097656 C 115.957031 6.355469 116.476562 7.699219 116.914062 9.054688 C 117.820312 11.871094 117.898438 14.824219 117.464844 17.707031 C 117.234375 19.261719 116.984375 19.035156 118.222656 20.167969 C 119.390625 21.234375 120.398438 22.425781 121.546875 23.511719 C 123.40625 25.265625 125.308594 25.804688 127.730469 26.777344 C 130.183594 27.765625 131.195312 30.683594 132.046875 32.65625 C 136.042969 41.917969 136.527344 52.71875 135.339844 62.433594 C 135.023438 65.027344 134.453125 67.605469 133.53125 70.09375 C 133.109375 71.234375 132.28125 71.964844 132.804688 73.078125 C 133.585938 74.75 134.003906 76.527344 134.253906 78.304688 C 135.152344 84.691406 132.421875 91.671875 127.3125 96.425781 C 127.183594 96.546875 127.207031 96.722656 127.417969 96.757812 C 137.363281 98.558594 136.832031 86.410156 137.660156 81.09375 C 139.433594 69.6875 140.515625 58.140625 143.492188 46.894531 C 143.214844 46.976562 142.941406 47.058594 142.664062 47.140625 C 145.449219 48.726562 143.773438 51.90625 143.207031 54.113281 C 142.496094 56.878906 142.4375 59.875 142.082031 62.691406 C 141.375 68.226562 141.089844 73.792969 140.433594 79.335938 C 139.820312 84.535156 138.90625 89.84375 136.425781 94.671875 C 135.949219 95.605469 135.363281 96.496094 134.730469 97.359375 C 133.535156 98.988281 132.621094 99.226562 130.429688 99.375 C 126.554688 99.636719 122.640625 99.46875 118.757812 99.484375 C 118.527344 99.488281 118.175781 99.550781 118.121094 99.78125 C 116.984375 104.605469 117.601562 109.835938 117.644531 114.730469 C 117.65625 116.335938 117.714844 117.9375 117.789062 119.542969 C 118.054688 125.554688 118.308594 131.851562 120.238281 137.679688 C 120.832031 139.480469 121.546875 141.039062 123.769531 141.601562 C 129.894531 143.152344 136.414062 143.453125 142.703125 144.273438 C 144.472656 144.503906 146.226562 144.792969 147.96875 145.136719 C 149.703125 145.476562 149.457031 147.464844 148.941406 148.597656 C 147.992188 150.699219 145.898438 148.976562 145.417969 147.878906 C 145.125 147.210938 144.875 146.574219 144.367188 145.992188 C 143.207031 144.667969 140.066406 145.398438 138.417969 145.289062 C 134.839844 145.050781 131.304688 144.449219 127.730469 144.160156 C 125.804688 144.007812 123.878906 144.003906 121.953125 144.148438 C 120.515625 144.257812 119.167969 145.128906 117.917969 145.65625 C 114.347656 147.152344 109.558594 146.269531 105.789062 145.820312 C 100.914062 145.242188 95.09375 144.699219 93.648438 149.683594 C 93.859375 149.585938 94.070312 149.488281 94.28125 149.390625 C 92.8125 149.390625 90.84375 149.921875 90.800781 148.296875 C 90.773438 147.367188 90.402344 146.4375 90.265625 145.511719 C 90.132812 145.625 90.003906 145.738281 89.875 145.851562 C 94.644531 144.886719 99.570312 144.386719 104.308594 143.394531 C 106.328125 142.972656 108.109375 141.828125 109.304688 140.414062 C 112.636719 136.476562 113.046875 131.105469 113.117188 126.4375 C 113.1875 121.988281 112.6875 117.523438 111.90625 113.128906 C 111.125 108.742188 111.480469 104.527344 111.867188 100.109375 C 111.882812 99.953125 111.71875 99.910156 111.570312 99.890625 C 107.710938 99.308594 103.777344 99.398438 99.875 99.472656 C 97.480469 99.519531 95.09375 99.5625 92.699219 99.511719 C 91.988281 99.496094 91.238281 99.40625 90.652344 99.828125 C 88.300781 101.527344 89.667969 106.308594 90.160156 108.5 C 90.523438 110.105469 90.484375 111.78125 90.878906 113.402344 C 91.324219 115.25 92.019531 117.050781 92.730469 118.835938 C 93.867188 121.683594 94.761719 125.019531 96.519531 127.632812 C 98.160156 130.070312 99.347656 132.378906 99.734375 135.214844 C 100.023438 137.316406 99.703125 139.460938 99.230469 141.523438 C 99.039062 142.367188 98.316406 142.488281 97.5 142.863281 C 95.785156 143.648438 94.125 143.632812 93.125 142.136719 C 92.976562 141.917969 92.464844 142.085938 92.316406 142.207031 C 91.015625 143.285156 89.453125 143.578125 88.015625 144.410156 C 87.460938 144.730469 87.027344 145.136719 86.398438 145.328125 C 84.757812 145.820312 83.082031 146.238281 81.378906 146.550781 C 79.667969 146.863281 75.667969 146.886719 78.230469 144.664062 C 78.773438 144.1875 80.472656 143.867188 80.722656 143.257812 C 80.796875 143.078125 80.4375 143.023438 80.308594 143.039062 C 79.800781 143.105469 79.300781 143.234375 78.800781 143.339844 C 78.851562 143.496094 78.902344 143.65625 78.953125 143.8125 C 80.527344 143.464844 81.964844 142.496094 83.1875 141.644531 C 84.945312 140.417969 86.449219 138.953125 87.855469 137.445312 C 88.070312 137.214844 89.019531 136.328125 88.992188 136.046875 C 88.890625 134.886719 88.226562 133.882812 88.03125 132.738281 C 88.015625 132.664062 87.914062 132.625 87.839844 132.601562 C 85.5 131.859375 83.101562 131.769531 80.640625 131.503906 C 78.148438 131.230469 78.265625 129.859375 77.886719 128.125 C 77.609375 126.84375 77.332031 125.566406 77.050781 124.289062 C 75.933594 119.171875 74.789062 114.058594 73.566406 108.960938 C 73.488281 108.636719 72.558594 108.835938 72.640625 109.167969 C 74.417969 116.5625 76.011719 123.984375 77.632812 131.402344 C 77.648438 131.476562 77.746094 131.519531 77.820312 131.539062 C 80.398438 132.179688 83.078125 132.140625 85.691406 132.632812 C 87.234375 132.921875 87.398438 134.046875 87.855469 135.136719 C 88.4375 136.535156 86.160156 138.265625 85.109375 139.265625 C 83.511719 140.777344 81.246094 142.796875 78.800781 143.339844 C 78.234375 143.464844 78.386719 143.933594 78.953125 143.8125 C 79.242188 143.753906 79.535156 143.691406 79.824219 143.628906 C 80.191406 143.632812 80.246094 143.46875 79.980469 143.140625 C 79.671875 143.277344 79.351562 143.394531 79.046875 143.539062 C 78.28125 143.902344 77.382812 144.359375 76.917969 145.015625 C 75.863281 146.5 77.027344 147.273438 78.769531 147.308594 C 81.203125 147.359375 83.746094 146.601562 86.019531 145.957031 C 86.4375 145.835938 87.011719 145.746094 87.382812 145.527344 C 89.25 144.441406 91.445312 143.742188 93.078125 142.394531 C 92.808594 142.417969 92.542969 142.441406 92.273438 142.464844 C 93.023438 143.585938 94.1875 144.292969 95.773438 143.953125 C 96.574219 143.78125 99.777344 142.929688 99.976562 142.171875 C 101.183594 137.539062 101.085938 132.820312 98.253906 128.609375 C 97.09375 126.886719 96.414062 125.203125 95.632812 123.328125 C 94.425781 120.417969 93.132812 117.542969 92.1875 114.5625 C 91.167969 111.339844 90.765625 107.691406 90.492188 104.339844 C 90.382812 102.980469 90.019531 99.945312 92.363281 100.023438 C 95.648438 100.132812 98.949219 99.988281 102.234375 99.945312 C 103.628906 99.925781 111.007812 99.46875 110.855469 101.0625 C 110.683594 102.820312 110.4375 104.5625 110.375 106.324219 C 110.226562 110.464844 111.253906 114.378906 111.734375 118.480469 C 112.410156 124.257812 112.679688 130.390625 110.808594 136.035156 C 109.972656 138.566406 108.417969 141.1875 105.554688 142.46875 C 104.0625 143.132812 102.4375 143.023438 100.855469 143.363281 C 97.179688 144.148438 93.414062 144.628906 89.726562 145.378906 C 89.539062 145.414062 89.3125 145.535156 89.335938 145.71875 C 89.539062 147.066406 89.953125 148.304688 89.8125 149.683594 C 89.800781 149.824219 89.960938 149.902344 90.109375 149.902344 L 93.945312 149.902344 C 94.183594 149.902344 94.511719 149.835938 94.578125 149.609375 C 96.242188 143.875 104.78125 146.371094 109.761719 146.792969 C 112.335938 147.011719 115.085938 147.058594 117.550781 146.324219 C 118.808594 145.953125 119.9375 145.300781 121.144531 144.835938 C 123.296875 144.003906 126.75 144.605469 129.039062 144.816406 C 132.859375 145.171875 136.628906 145.808594 140.476562 145.917969 C 142.214844 145.96875 143.496094 145.894531 144.214844 147.433594 C 144.5625 148.171875 144.773438 148.917969 145.417969 149.519531 C 146.191406 150.242188 147.878906 150.050781 148.757812 149.59375 C 150.554688 148.667969 150.261719 146.644531 150.15625 145.109375 C 150.152344 145.039062 150.035156 144.984375 149.96875 144.972656 C 145.59375 143.976562 141.09375 143.5 136.609375 143.003906 C 133.988281 142.710938 131.367188 142.40625 128.765625 142 C 127.066406 141.734375 124.546875 141.5625 123.101562 140.71875 C 121.628906 139.863281 121.171875 137.597656 120.789062 136.253906 C 120.136719 133.953125 119.796875 131.582031 119.5 129.234375 C 118.957031 124.925781 118.71875 120.589844 118.605469 116.265625 C 118.570312 114.84375 118.636719 113.433594 118.640625 112.011719 C 118.644531 107.914062 118.097656 103.753906 119.054688 99.703125 C 118.84375 99.804688 118.632812 99.902344 118.417969 100 C 122.390625 99.984375 126.363281 100.09375 130.328125 99.886719 C 131.242188 99.835938 132.957031 99.945312 133.738281 99.492188 C 134.632812 98.972656 135.363281 97.746094 135.914062 96.996094 C 139.335938 92.328125 140.355469 86.492188 141.121094 81.148438 C 142.03125 74.78125 142.28125 68.359375 143.09375 61.980469 C 143.492188 58.84375 143.644531 55.617188 144.550781 52.554688 C 145.171875 50.453125 145.832031 48.117188 143.386719 46.71875 C 143.140625 46.582031 142.625 46.714844 142.558594 46.96875 C 139.691406 57.792969 138.566406 68.902344 136.917969 79.890625 C 136.261719 84.277344 136.144531 89.164062 134.320312 93.34375 C 133.960938 94.164062 133.421875 94.914062 132.703125 95.546875 C 132.105469 96.074219 131.289062 96.332031 130.453125 96.449219 C 130.585938 96.429688 128.253906 96.441406 128.476562 96.234375 C 130.269531 94.566406 131.625 92.574219 132.730469 90.539062 C 135.167969 86.050781 135.871094 80.964844 134.828125 76.125 C 134.621094 75.167969 133.164062 72.808594 133.625 71.925781 C 134.027344 71.152344 134.339844 70.339844 134.640625 69.53125 C 135.5 67.203125 135.945312 64.769531 136.269531 62.355469 C 137.542969 52.941406 136.855469 42.558594 133.398438 33.507812 C 132.632812 31.496094 131.722656 29.429688 130.28125 27.683594 C 129.683594 26.957031 128.769531 26.429688 127.804688 26.101562 C 125.886719 25.449219 124.464844 24.898438 122.929688 23.652344 C 121.679688 22.636719 120.652344 21.425781 119.546875 20.300781 C 119.007812 19.753906 118.0625 19.210938 118.261719 18.347656 C 118.472656 17.410156 118.5625 16.453125 118.632812 15.5 C 118.84375 12.644531 118.269531 9.769531 117.199219 7.066406 C 116.457031 5.1875 115.136719 2.277344 113.015625 1.246094 C 110.644531 0.0898438 107.832031 -0.125 105.160156 0.117188 C 99.3125 0.644531 93.980469 3.851562 89.539062 6.863281 C 89.410156 6.953125 89.324219 7.046875 89.410156 7.179688 C 90.636719 9.082031 91.933594 10.941406 92.921875 12.941406 C 93.46875 14.050781 93.855469 15.203125 94.171875 16.371094 C 94.34375 17.011719 94.4375 17.664062 94.527344 18.3125 C 94.609375 18.886719 94.328125 20.121094 94.679688 20.484375 C 95.554688 21.382812 96.40625 21.730469 97.054688 22.855469 C 97.554688 23.730469 97.914062 24.664062 98.390625 25.550781 C 99.023438 26.738281 100.160156 28.101562 101.886719 28.082031 C 103.0625 28.070312 108.367188 25.722656 108.808594 26.605469 C 109.808594 28.613281 107.867188 30.761719 108.453125 32.832031 C 108.71875 33.769531 108.675781 33.816406 107.972656 34.660156 C 107.304688 35.457031 106.765625 36.289062 106.292969 37.175781 C 105.238281 39.160156 104.730469 41.34375 104.328125 43.476562 C 103.394531 48.394531 103.367188 53.40625 102.523438 58.335938 C 102.285156 59.734375 100.246094 59.652344 98.867188 59.914062 C 97.066406 60.257812 95.257812 60.566406 93.433594 60.808594 C 89.351562 61.351562 85.175781 61.316406 81.332031 59.921875 C 79.097656 59.109375 77.605469 57.625 75.753906 56.382812 C 74.613281 55.621094 73.304688 55.226562 71.847656 55.570312 C 69.90625 56.03125 67.824219 56.914062 66.191406 57.917969 C 65.378906 58.414062 65.34375 59.625 66.496094 59.707031 C 68.78125 59.863281 72.804688 59.242188 73.082031 61.949219 L 73.714844 61.589844 C 69.289062 61.578125 64.933594 60.976562 60.523438 60.808594 C 59.625 60.773438 56.621094 60.324219 55.914062 60.945312 C 55.574219 61.246094 55.480469 61.648438 55.390625 62.039062 C 55.304688 62.429688 55.292969 62.84375 55.234375 63.238281 C 55.054688 64.421875 52.957031 64.105469 52.117188 64.082031 C 47.617188 63.957031 44.488281 61.605469 41.285156 59.261719 C 40.757812 58.875 40.214844 58.507812 39.664062 58.152344 C 38.355469 57.304688 38.144531 57.027344 38.140625 55.574219 C 38.128906 53.269531 37.566406 50.792969 38.523438 48.570312 C 38.238281 48.617188 37.949219 48.660156 37.660156 48.707031 C 38.859375 50.621094 38.621094 52.925781 40.058594 54.753906 C 40.300781 55.0625 41.371094 54.914062 41.746094 54.902344 C 43.164062 54.851562 44.019531 53.957031 45.585938 54.039062 C 45.808594 54.050781 46.277344 53.9375 46.214844 53.679688 C 43.914062 44.136719 41.648438 34.582031 38.933594 25.113281 C 37.613281 20.496094 36.152344 15.902344 34.503906 11.355469 C 34.214844 10.558594 33.941406 7.898438 32.617188 7.851562 C 30.984375 7.792969 29.519531 8.519531 27.949219 8.796875 C 27.78125 8.824219 27.511719 8.960938 27.5625 9.136719 C 30.304688 18.863281 32.339844 28.707031 33.292969 38.675781 C 33.839844 44.390625 33.980469 50.125 33.816406 55.855469 C 33.75 58.109375 31.375 59.105469 29.519531 60.34375 C 28.125 61.277344 27.328125 62.421875 27.078125 63.898438 C 27.292969 63.800781 27.503906 63.703125 27.714844 63.605469 C 18.601562 63.386719 9.515625 64.242188 0.402344 64.007812 C 0.21875 64.003906 -0.230469 64.078125 -0.230469 64.300781 L -0.230469 70.753906 C -0.230469 70.894531 -0.09375 70.96875 0.0664062 70.972656 C 4.039062 71.089844 8.011719 70.976562 11.984375 70.921875 C 14.15625 70.894531 16.324219 70.90625 18.496094 70.988281 C 19.53125 71.027344 20.5625 71.109375 21.59375 71.203125 C 23.101562 71.339844 22.824219 72.375 22.867188 73.398438 C 23.199219 81.027344 23.296875 88.664062 23.320312 96.296875 C 23.371094 111.835938 23.050781 127.378906 23.246094 142.917969 C 23.25 143.105469 23.472656 143.144531 23.664062 143.136719 C 26.089844 143.015625 28.820312 143.601562 31.097656 142.675781 C 31.195312 142.636719 31.367188 142.546875 31.367188 142.4375 C 31.671875 118.519531 30.714844 94.585938 31.84375 70.675781 C 31.632812 70.773438 31.421875 70.871094 31.210938 70.972656 L 83.964844 70.972656 C 85.027344 70.972656 86.476562 71.207031 87.503906 70.976562 C 87.867188 70.894531 88.226562 70.8125 88.457031 70.535156 C 89.1875 69.65625 89.082031 69.289062 90.632812 69.773438 C 93.132812 70.558594 95.796875 70.792969 98.402344 71.226562 C 99.8125 71.464844 101.171875 71.8125 102.441406 72.386719 C 103.257812 72.753906 103.261719 73.351562 103.261719 74.058594 C 103.261719 75.226562 103.382812 75.785156 101.898438 76.171875 C 94.863281 78.011719 87.941406 80.152344 81.109375 82.457031 C 75.199219 84.449219 69.0625 86.390625 63.378906 88.808594 C 61.664062 89.535156 60.34375 90.386719 59.5 91.851562 C 58.269531 93.988281 58.976562 96.808594 58.792969 99.09375 C 58.355469 104.527344 55.140625 109.855469 52.648438 114.785156 C 50.859375 118.332031 49.113281 121.898438 47.847656 125.605469 C 47.4375 126.800781 46.273438 129.21875 46.738281 130.445312 C 47.046875 131.257812 47.871094 131.417969 48.753906 131.664062 C 51.457031 132.425781 46.933594 135.5 46.019531 136.023438 C 44.472656 136.902344 42.691406 137.503906 40.980469 138.121094 C 38.035156 139.179688 34.992188 140.246094 32.914062 142.382812 C 32.742188 142.558594 32.875 142.710938 33.125 142.730469 C 37.546875 143.078125 41.972656 143.371094 46.417969 143.25 C 49.847656 143.152344 53.769531 142.816406 56.589844 141.015625 C 56.347656 141.019531 56.109375 141.023438 55.867188 141.027344 C 57.644531 143.542969 61.046875 143.96875 64.269531 143.941406 C 65.070312 143.933594 65.550781 143.011719 65.765625 142.492188 C 66.539062 140.625 65.972656 138.875 65.5625 136.996094 C 64.625 132.691406 67.640625 128.414062 69.214844 124.457031 C 70.980469 120.019531 71.816406 115.402344 73.980469 111.058594 C 74.171875 110.65625 73.242188 110.703125 73.101562 110.984375 Z M 73.113281 111 "/>
</g>
</svg>
