<svg xmlns="http://www.w3.org/2000/svg" width="187" height="133.69602604812133" viewBox="0 0 187 133.69602604812133" class="editor-view__logo-preview" data-v-8d8ae3dd="" data-v-b9d2a614=""><svg id="mark" viewBox="0 0 86.38099670410156 100" width="80" height="92.61296240195087" x="53.5" y="0" data-v-8d8ae3dd="" style="fill: rgb(229, 229, 229);"><rect x="0" y="0" width="100%" height="100%" fill="none" data-v-8d8ae3dd=""></rect><g data-v-8d8ae3dd=""><path xmlns="http://www.w3.org/2000/svg" d="M85.299,20.57c-0.684-0.532-1.556-0.654-2.326-0.319L45.799,36.348c-1.616,0.703-3.639,1.042-5.717,1.042  c-2.897,0.008-5.895-0.667-7.984-1.586c-0.748-0.319-1.372-0.678-1.813-0.998c0.162-0.079,0.346-0.162,0.562-0.246l33.818-14.637  l5.047,2.159v-6.308c0-0.939-0.398-1.829-1.082-2.354c-0.685-0.532-1.56-0.654-2.322-0.319L29.1,29.196  c-1.146,0.466-2.131,1.031-2.967,1.86c-0.819,0.801-1.527,2.124-1.516,3.593c0,0.04,0.011,0.105,0.011,0.105v56.681  c0,0.022-0.007,0.049-0.007,0.075c0,0.019,0.007,0.026,0.007,0.045v0.061h0.008c0.083,2.007,1.078,3.288,2.033,4.134  c3.004,2.648,8.046,4.13,13.407,4.25c2.54,0,5.12-0.402,7.502-1.409l37.182-16.114c0.984-0.402,1.623-1.473,1.623-2.649V22.928  C86.381,21.99,85.976,21.102,85.299,20.57z"></path><path xmlns="http://www.w3.org/2000/svg" d="M61.722,9.794c-0.067-0.849-0.413-1.65-1.045-2.138c-0.68-0.532-1.556-0.654-2.33-0.319L21.176,23.433  c-1.616,0.699-3.643,1.043-5.718,1.043c-2.897,0.004-5.896-0.671-7.985-1.589c-0.742-0.316-1.37-0.675-1.812-0.994  c0.162-0.081,0.35-0.162,0.562-0.246L40.037,7.009l5.04,2.159V2.86c0-0.939-0.408-1.828-1.092-2.354  c-0.678-0.532-1.567-0.656-2.332-0.319L4.479,16.282c-1.146,0.462-2.127,1.028-2.963,1.86C0.693,18.943-0.011,20.266,0,21.737  c0,0.041,0.011,0.103,0.011,0.103v56.683c0,0.022-0.004,0.053-0.004,0.075c0,0.015,0.004,0.022,0.004,0.082v0.075h0.007  c0.081,2.007,1.079,3.288,2.033,4.123c3.004,2.649,8.046,4.085,13.41,4.22c1.447,0,2.901-0.188,4.333-0.458V34.769  c-0.038-2.694,1.039-5.28,2.933-7.142c1.227-1.212,2.724-2.17,4.579-2.909L61.722,9.794z"></path></g></svg><svg id="name" viewBox="0 0 187.3916015625 33.15234375" width="187" height="33.083063646170444" x="0" y="100.61296240195087" data-v-8d8ae3dd="" style="fill: rgb(229, 229, 229);"><rect x="0" y="0" width="100%" height="100%" fill="none" data-v-8d8ae3dd=""></rect><g data-v-8d8ae3dd=""><path xmlns="http://www.w3.org/2000/svg" d="M18.58 8.40L23 23.88L26.19 8.40L32.46 8.40L26.26 32.70L20.82 32.70L16.22 17.41L11.61 32.70L6.20 32.70L0 8.40L6.27 8.40L9.43 23.85L13.88 8.40L18.58 8.40ZM35.53 8.40L41.64 8.40L41.84 11.21Q44.45 7.95 48.83 7.95L48.83 7.95Q52.69 7.95 54.58 10.22Q56.47 12.49 56.51 17.00L56.51 17.00L56.51 32.70L50.02 32.70L50.02 17.16Q50.02 15.09 49.12 14.16Q48.22 13.23 46.13 13.23L46.13 13.23Q43.39 13.23 42.02 15.57L42.02 15.57L42.02 32.70L35.53 32.70L35.53 8.40ZM88.45 0L88.45 32.70L81.71 32.70L68.60 11.19L68.60 32.70L61.86 32.70L61.86 0L68.60 0L81.74 21.56L81.74 0L88.45 0ZM105.09 33.15L105.09 33.15Q99.75 33.15 96.39 29.87Q93.03 26.59 93.03 21.14L93.03 21.14L93.03 20.51Q93.03 16.85 94.45 13.96Q95.86 11.07 98.46 9.51Q101.05 7.95 104.38 7.95L104.38 7.95Q109.36 7.95 112.23 11.10Q115.09 14.24 115.09 20.01L115.09 20.01L115.09 22.66L99.61 22.66Q99.93 25.04 101.51 26.48Q103.10 27.92 105.52 27.92L105.52 27.92Q109.27 27.92 111.38 25.20L111.38 25.20L114.57 28.77Q113.11 30.84 110.62 32.00Q108.13 33.15 105.09 33.15ZM104.35 13.21L104.35 13.21Q102.42 13.21 101.22 14.51Q100.02 15.81 99.68 18.24L99.68 18.24L108.71 18.24L108.71 17.72Q108.67 15.57 107.54 14.39Q106.42 13.21 104.35 13.21ZM124.03 8.40L128.03 15.66L132.12 8.40L139.06 8.40L132.14 20.30L139.35 32.70L132.38 32.70L128.05 25.07L123.74 32.70L116.75 32.70L123.96 20.30L117.07 8.40L124.03 8.40ZM156.91 32.70L156.73 30.23Q154.33 33.15 150.08 33.15L150.08 33.15Q146.18 33.15 144.12 30.91Q142.07 28.66 142.02 24.33L142.02 24.33L142.02 8.40L148.51 8.40L148.51 24.10Q148.51 27.90 151.97 27.90L151.97 27.90Q155.27 27.90 156.51 25.61L156.51 25.61L156.51 8.40L163.02 8.40L163.02 32.70L156.91 32.70ZM181.08 25.99L181.08 25.99Q181.08 24.80 179.90 24.11Q178.72 23.43 176.12 22.89L176.12 22.89Q167.45 21.07 167.45 15.52L167.45 15.52Q167.45 12.29 170.13 10.12Q172.81 7.95 177.15 7.95L177.15 7.95Q181.78 7.95 184.55 10.13Q187.32 12.31 187.32 15.79L187.32 15.79L180.83 15.79Q180.83 14.40 179.93 13.49Q179.04 12.58 177.13 12.58L177.13 12.58Q175.49 12.58 174.59 13.32Q173.69 14.06 173.69 15.21L173.69 15.21Q173.69 16.28 174.71 16.95Q175.73 17.61 178.16 18.09Q180.59 18.58 182.25 19.18L182.25 19.18Q187.39 21.07 187.39 25.72L187.39 25.72Q187.39 29.04 184.54 31.10Q181.69 33.15 177.17 33.15L177.17 33.15Q174.12 33.15 171.75 32.06Q169.38 30.97 168.03 29.08Q166.68 27.18 166.68 24.98L166.68 24.98L172.84 24.98Q172.93 26.71 174.12 27.63Q175.31 28.55 177.31 28.55L177.31 28.55Q179.17 28.55 180.13 27.84Q181.08 27.13 181.08 25.99Z"></path></g></svg><!----></svg>